<?xml version="1.0" encoding="utf-8"?>
<!-- Generator: Adobe Illustrator 24.0.0, SVG Export Plug-In . SVG Version: 6.00 Build 0)  -->
<svg version="1.1" id="Layer_1" xmlns="http://www.w3.org/2000/svg" xmlns:xlink="http://www.w3.org/1999/xlink" x="0px" y="0px"
	 viewBox="0 0 216 144" style="enable-background:new 0 0 216 144;" xml:space="preserve">
<style type="text/css">
	.st0{fill:#CF9988;}
</style>
<g>
	<g>
		<path class="st0" d="M118.8,53.2c1.2,0,2.1,0.4,3,1.1c0.8,0.7,1.2,1.8,1.2,3.3c0,0.7-0.1,1.4-0.4,2.1c-0.3,0.7-0.6,1.6-1,2.4
			c-0.4,0.9-1.1,2.3-2.1,4.2c-1,1.9-1.5,3.1-1.5,3.4c0,0.2,0,0.3,0.1,0.4c0.1,0.1,0.2,0.1,0.4,0.1c0.2,0,0.6-0.1,1-0.4
			c0.4-0.3,1-0.8,1.7-1.7c0.7-0.8,1.5-2,2.3-3.6l0.5,0.3c-1.1,2-2.2,3.6-3.3,4.8c-1,1.2-2.5,1.8-4.4,1.8c-1.3,0-2.3-0.4-2.9-1.2
			c-0.7-0.8-1-1.8-1-2.9c0-0.8,0.1-1.4,0.3-1.9c0.2-0.5,0.7-1.6,1.6-3.4c0.9-1.8,1.6-3.2,2.2-4.3c0.6-1.1,0.8-2,0.8-2.7
			c0-0.2,0-0.4-0.1-0.5c-0.1-0.1-0.3-0.2-0.5-0.2c-0.3,0-0.7,0.2-1.1,0.6c-0.5,0.4-1,1-1.6,1.8c-0.6,0.8-1.3,1.9-1.9,3.3l-5.3,11.1
			h-7.2l6.3-14c0.1-0.4,0.3-0.8,0.5-1.2c0.2-0.5,0.3-0.8,0.3-1c0-0.2,0-0.3-0.1-0.4c-0.1-0.1-0.2-0.1-0.3-0.1
			c-0.3,0-0.7,0.2-1.2,0.5c-0.4,0.3-0.9,0.7-1.3,1.2c-0.4,0.5-0.9,1.1-1.4,1.9c-0.5,0.7-1,1.5-1.5,2.3l-0.5-0.2
			c1.2-2.1,2.3-3.7,3.5-4.9c1.1-1.2,2.5-1.8,4.2-1.8c1.2,0,2.1,0.4,2.8,1.1c0.7,0.7,1,1.7,1,3c0,0.6-0.1,1.1-0.2,1.6
			c-0.1,0.5-0.2,0.9-0.3,1.2c1.1-2.2,2.2-3.9,3.2-5.1C115.5,53.8,116.9,53.2,118.8,53.2z"/>
		<path class="st0" d="M148.8,53.6c-0.8,2.1-1.7,4.4-2.6,6.8c-0.9,2.4-2.1,5.3-3.6,8.6s-3.4,6-5.7,7.8s-5.5,2.8-9.3,2.8
			c-1.5,0-2.8-0.4-3.8-1.2c-1-0.8-1.6-1.8-1.6-2.9c0-0.9,0.3-1.7,0.9-2.4c0.6-0.7,1.5-1,2.6-1c0.9,0,1.7,0.3,2.4,0.9
			c0.7,0.6,1,1.4,1,2.2c0,0.8-0.3,1.4-0.8,2c-0.5,0.5-1.3,0.8-2.1,0.8c-0.3,0-0.4,0.1-0.4,0.3c0,0.2,0.2,0.3,0.5,0.5
			c0.3,0.1,0.8,0.2,1.3,0.2c1.3,0,2.5-0.6,3.5-1.7c1-1.1,1.9-2.6,2.8-4.5c0.9-1.9,1.7-3.8,2.5-5.6l-0.1,0c-0.8,1.4-1.7,2.4-2.7,3.2
			c-1,0.8-2.1,1.1-3.5,1.1c-1.5,0-2.7-0.5-3.7-1.4c-1-1-1.5-2.2-1.5-3.8c0-2.9,1.3-5.8,3.9-8.7c2.6-2.9,5.5-4.3,8.8-4.3
			c0.8,0,1.6,0.2,2.2,0.6c0.6,0.4,0.9,1,0.9,1.9l0,0.6l1.1-2.7H148.8z M140.1,55.7c0-0.4-0.1-0.7-0.3-0.9c-0.2-0.2-0.4-0.3-0.8-0.3
			c-0.4,0-0.9,0.4-1.5,1.1c-0.6,0.7-1.3,1.9-2.2,3.6c-0.9,1.7-1.8,3.7-2.8,6.1c-1,2.4-1.5,3.9-1.5,4.6c0,0.2,0,0.4,0.1,0.5
			c0.1,0.1,0.2,0.2,0.4,0.2c0.8,0,1.5-0.4,2.2-1.1c0.7-0.8,1.2-1.4,1.5-1.8c0.3-0.5,0.8-1.3,1.4-2.7c0.6-1.3,1.3-3,2.1-4.9
			C139.7,58.1,140.1,56.6,140.1,55.7z"/>
		<path class="st0" d="M157.2,61.7l-3.8,9.3h-7.1c0.7-1.6,1.5-3.7,2.5-6.1c1-2.5,2.2-5.3,3.5-8.6c1.3-3.3,2.2-5.6,2.8-7
			c0.6-1.4,0.9-2.3,1-2.7c0.1-0.4,0.2-0.7,0.2-1c0-0.6-0.4-0.8-1.2-0.8l-1.6-0.1v-0.6h10.9l-7,17c1.3-0.1,2.3-0.6,2.9-1.4
			c0.6-1.1,1.2-2.1,1.7-2.9c0.5-0.8,1.3-1.6,2.4-2.4c1.1-0.8,2.2-1.2,3.4-1.2c1.1,0,1.9,0.3,2.6,0.8c0.6,0.6,0.9,1.3,0.9,2.2
			c0,1-0.3,1.8-1,2.5c-0.7,0.7-1.5,1-2.4,1c-0.8,0-1.5-0.3-2.1-0.8c-0.6-0.5-0.8-1.2-0.8-2c0-0.6,0.2-1.1,0.5-1.6
			c0.4-0.4,0.7-0.8,1.1-1.2c-0.1,0-0.2-0.1-0.3-0.1c-0.6,0-1.2,0.5-1.8,1.4c-0.4,0.8-0.8,1.5-1.2,2.3c-0.5,0.8-0.9,1.3-1.3,1.7
			c-0.4,0.3-1.1,0.8-2.2,1.5c0.9,0,1.7,0.2,2.6,0.6c0.9,0.3,1.5,0.7,1.9,1.2c0.4,0.5,0.7,0.9,0.8,1.3c0.1,0.4,0.2,0.9,0.2,1.3
			c0,0.6-0.1,1.2-0.2,1.9c-0.2,0.7-0.3,1.3-0.5,2c0,0.2,0,0.4,0.1,0.6c0.1,0.1,0.2,0.2,0.4,0.2c0.5,0,1.1-0.4,1.8-1.1
			c0.6-0.8,1.1-1.4,1.4-1.8c0.3-0.5,0.7-1,1.1-1.7l0.4,0.3c-1.2,2.1-2.3,3.6-3.4,4.5s-2.6,1.4-4.5,1.4c-1.2,0-2.2-0.4-3.1-1.1
			c-0.9-0.7-1.3-1.7-1.3-2.9c0-0.4,0.2-1.2,0.6-2.4c0.4-1.2,0.6-1.9,0.6-2.1c0-0.5-0.1-0.8-0.3-0.9
			C158.3,61.8,157.9,61.7,157.2,61.7z"/>
		<path class="st0" d="M190.2,60.5c0,2.8-1.2,5.3-3.6,7.5c-2.4,2.2-5.3,3.4-8.7,3.4c-1,0-2-0.2-2.8-0.6c-0.8-0.4-1.7-1.1-2.7-2.1
			c-0.9-1-1.4-2.5-1.4-4.6c0-2.7,1.2-5.2,3.5-7.5s5.2-3.4,8.7-3.4c1.1,0,2,0.2,2.8,0.6c0.8,0.4,1.5,1,2.2,1.7
			c0.7,0.8,1.2,1.6,1.5,2.4C190.1,58.8,190.2,59.6,190.2,60.5z M185.2,55.1c0-0.4-0.1-0.7-0.3-0.9c-0.2-0.2-0.5-0.3-0.9-0.3
			c-0.4,0-0.9,0.3-1.4,0.9c-0.5,0.6-1.3,1.9-2.2,3.8c-1,1.9-1.9,4-2.8,6.2c-0.9,2.2-1.3,3.8-1.3,4.7c0,0.5,0.1,0.8,0.3,1.1
			c0.2,0.2,0.5,0.3,0.9,0.3c0.4,0,0.9-0.3,1.3-0.8c0.5-0.5,1.1-1.7,2-3.4c0.9-1.7,1.9-3.8,2.9-6.3C184.6,57.9,185.2,56.1,185.2,55.1
			z"/>
		<path class="st0" d="M212.6,56.6c0,1.1-0.3,2-1,2.8c-0.7,0.8-1.5,1.1-2.5,1.1c-0.9,0-1.7-0.3-2.3-0.8c-0.7-0.5-1-1.2-1-2.1
			c0-0.4,0.1-0.8,0.3-1.2c0.2-0.4,0.4-0.8,0.7-1.2c0-0.2-0.1-0.3-0.4-0.3c-0.4,0-0.9,0.5-1.5,1.4c-0.6,0.9-1.3,2.2-2,3.6l-5.3,11.1
			h-7.2l6.3-14c0.1-0.2,0.2-0.5,0.3-0.9c0.1-0.3,0.1-0.6,0.1-0.9c0-0.2,0-0.4-0.1-0.5c-0.1-0.1-0.2-0.1-0.4-0.1
			c-0.3,0-0.6,0.2-1,0.5c-0.4,0.3-0.8,0.7-1.1,1.2c-0.4,0.5-0.8,1.1-1.3,2c-0.5,0.9-1,1.6-1.3,2.2l-0.5-0.2c1.5-3,2.9-4.9,4-5.8
			c1.1-0.9,2.4-1.3,3.8-1.3c1.2,0,2.1,0.4,2.6,1.1s0.9,1.7,0.9,3c0,0.5-0.1,1-0.2,1.5c-0.1,0.5-0.2,0.9-0.3,1.1l0.1,0
			c1.1-2.3,2.1-4,3-5.1c0.9-1.1,2.1-1.6,3.7-1.6c1.2,0,2,0.4,2.6,1.1C212.3,55,212.6,55.8,212.6,56.6z"/>
	</g>
	<g>
		<path d="M95.1,77.6h26.1v10.6h-0.6c-0.6-1.3-1.3-2.8-2.1-4.3c-0.8-1.5-1.7-2.8-2.6-3.9c-0.9-1.1-1.7-1.7-2.4-1.7l-1.3-0.1v19.3
			l0.1,1.5c0.1,0.7,0.2,1.2,0.4,1.5s0.6,0.4,1.1,0.5c0.5,0.1,0.9,0.1,1.3,0.1c0.4,0,0.7,0,1.1,0.1v0.5H100v-0.5l2.2-0.1
			c0.7-0.1,1.1-0.2,1.4-0.5c0.2-0.3,0.4-0.8,0.5-1.5l0.1-1.5V78.2l-1.3,0.1c-0.7,0-1.5,0.5-2.3,1.6c-0.9,1-1.7,2.4-2.6,4
			c-0.9,1.6-1.6,3.1-2.2,4.4h-0.6V77.6z"/>
		<path d="M139.7,93.8c0,2.3-0.9,4.3-2.7,5.8c-1.8,1.6-3.9,2.3-6.3,2.3c-2.5,0-4.7-0.8-6.4-2.3c-1.7-1.6-2.6-3.5-2.6-5.8
			c0-2.3,0.9-4.3,2.6-5.8c1.7-1.6,3.8-2.3,6.3-2.3c2.4,0,4.5,0.8,6.3,2.3C138.8,89.5,139.7,91.5,139.7,93.8z M133.1,93.8
			c0-0.3,0-0.9-0.1-1.8c0-0.9-0.1-1.5-0.1-1.7c0-1.2-0.2-2.2-0.5-2.9c-0.4-0.8-0.9-1.2-1.7-1.2c-0.7,0-1.2,0.4-1.6,1.2
			c-0.4,0.8-0.6,1.8-0.6,2.9c0,0.4,0,0.9,0,1.5c0,0.6-0.1,1.3-0.1,2c0,0.3,0,0.9,0.1,1.9c0,1,0.1,1.5,0.1,1.7c0,1.2,0.2,2.2,0.5,2.9
			c0.4,0.8,0.9,1.2,1.7,1.2c0.7,0,1.3-0.4,1.7-1.2c0.4-0.8,0.6-1.8,0.6-2.9c0-0.4,0-1,0-1.6S133.1,94.5,133.1,93.8z"/>
		<path d="M161.7,101.6H153v-2.1c-0.5,0.8-1.1,1.4-1.9,1.8c-0.7,0.4-1.8,0.6-3.1,0.6c-1.5,0-2.9-0.5-4-1.4c-1.2-0.9-1.8-2.1-1.8-3.7
			v-7.3l0-1.4c0-0.6-0.1-1-0.3-1.2s-0.6-0.4-1.2-0.4l-0.9-0.1V86h8.8v10.8l0,1.4c0,0.9,0.2,1.6,0.5,2c0.3,0.5,0.8,0.7,1.4,0.7
			c0.7,0,1.2-0.2,1.5-0.6s0.6-0.8,0.8-1.2v-8.9l-0.1-1.5c0-0.7-0.1-1.2-0.4-1.5c-0.2-0.3-0.7-0.4-1.4-0.5l-1-0.1V86h9.2v12l0,1.4
			c0,0.6,0.1,1,0.3,1.2s0.6,0.4,1.2,0.4l0.9,0.1V101.6z"/>
		<path d="M161.9,101.6v-0.5l0.9,0c0.6-0.1,1-0.2,1.2-0.5c0.1-0.2,0.2-0.8,0.2-1.6l0-1.5v-7.9l0-1.4c0-0.5-0.1-0.9-0.2-1.2
			s-0.5-0.4-1.2-0.5l-0.9-0.1V86h8.6v2.8c0.2-0.4,0.5-1,1-1.8c0.5-0.8,1.6-1.2,3.5-1.2c1.1,0,2,0.4,2.7,1.1c0.7,0.7,1.1,1.6,1.1,2.6
			c0,1-0.3,1.9-1,2.5c-0.7,0.7-1.5,1-2.6,1c-0.8,0-1.6-0.3-2.2-0.9c-0.6-0.6-0.9-1.2-0.9-2c0-0.5,0.1-1.1,0.3-1.5
			c0.2-0.4,0.4-0.8,0.7-1.3c-0.1-0.2-0.2-0.2-0.3-0.2c-0.6,0-1.1,0.3-1.5,1c-0.4,0.7-0.6,1.3-0.6,1.9v7.6l0,1.7c0,0.6,0.1,1,0.2,1.3
			c0.2,0.2,0.5,0.4,1.1,0.4l1,0.1v0.5H161.9z"/>
		<path d="M180.1,94.8h0.4c0.6,1.8,1.1,3.1,1.7,3.9c0.6,0.8,1.2,1.5,1.9,1.9c0.7,0.4,1.5,0.6,2.5,0.6c0.6,0,1-0.1,1.4-0.4
			c0.4-0.3,0.6-0.7,0.6-1.2c0-0.7-0.2-1.2-0.5-1.5c-0.3-0.3-0.8-0.7-1.5-1.1c-0.7-0.4-1.4-0.8-2.3-1.3c-0.9-0.5-1.6-0.9-2.2-1.4
			c-0.6-0.5-1-1-1.4-1.5c-0.3-0.6-0.5-1.2-0.5-2c0-1.6,0.6-2.9,1.8-3.8c1.2-0.9,2.7-1.3,4.5-1.3c0.8,0,1.6,0.2,2.4,0.5
			c0.7,0.4,1.5,0.7,2.2,1.1c0.3,0,0.6-0.2,0.8-0.6c0.2-0.4,0.3-0.8,0.3-1.3h0.5V92h-0.4c-0.2-0.5-0.4-1.1-0.7-1.7
			c-0.3-0.6-0.6-1.3-1.1-1.9c-0.5-0.6-1-1.2-1.6-1.5c-0.6-0.4-1.3-0.5-2.1-0.5c-0.6,0-1.1,0.1-1.5,0.4c-0.4,0.3-0.6,0.7-0.6,1.1
			c0,0.5,0.1,0.9,0.4,1.2c0.3,0.3,0.7,0.6,1.2,0.9c0.5,0.3,1.2,0.7,2.2,1.2c0.9,0.5,1.7,1,2.5,1.5c0.7,0.5,1.3,1.1,1.8,1.8
			c0.5,0.7,0.7,1.5,0.7,2.5c0,1.7-0.6,3-1.9,3.8c-1.3,0.9-2.8,1.3-4.7,1.3c-0.9,0-1.9-0.2-2.8-0.6c-0.9-0.4-1.7-0.9-2.6-1.4
			c-0.3,0-0.5,0.2-0.8,0.7c-0.2,0.5-0.4,1-0.4,1.5h-0.5V94.8z"/>
	</g>
	<g>
		<path class="st0" d="M51.4,71.6c-0.3,0.6-1.4,2.6-3.1,6.1c-1.8,3.4-4,7.4-6.7,12c-2.7,4.5-5.5,8-8.4,10.4
			c-2.9,2.4-6.8,3.5-11.4,3.5c-3.8,0-7-1.1-9.6-3.4c-2.6-2.2-3.9-5.3-3.9-9.2c0-3.5,1.2-6.5,3.6-8.9c2.4-2.4,5.4-3.6,9.1-3.6
			c3.3,0,6.1,1,8.4,3s3.5,4.7,3.5,8.1c0,1.5-0.2,2.8-0.7,4.1c-0.5,1.2-1.1,2.1-1.7,2.7c-0.6,0.6-1.6,1.3-2.9,2.1
			c-1.3,0.8-1.9,1.5-1.9,2.1c0.4,0.4,0.8,0.6,1,0.6c1.3,0,2.9-0.7,4.9-2.1c2-1.4,4-3.6,6-6.7c2-3,4.2-6.8,6.5-11.1
			c2.3-4.4,5.3-9.8,8.9-16.1c3.7-6.4,6.6-11.1,8.7-14.4c2.2-3.2,6-6.7,11.6-10.4c5.5-3.7,12.4-5.5,20.5-5.5c3.3,0,5.8,0.1,7.6,0.2
			c1.8,0.1,3.5,0.3,4.9,0.5L84.1,90.9c-1.5,3.9-2.3,6.3-2.3,7.4c0,1.5,0.9,2.3,2.7,2.4c1.8,0.2,4.1,0.2,7.1,0.2v1.5H47V101
			c0.7,0,1.6,0,2.6-0.1c1-0.1,2.3-0.2,3.8-0.4c1.5-0.2,2.8-0.8,3.9-2c1.1-1.2,2.5-3.8,4.2-7.7l7.9-19.2H51.4z M70.2,69.5l12.6-31.4
			c-3.2,0.7-6.4,2.2-9.6,4.4c-3.2,2.3-5.9,4.8-8.2,7.6c-2.2,2.8-4.3,5.7-6.3,8.8c-2,3.1-4,6.7-6.2,10.6H70.2z"/>
	</g>
</g>
</svg>
